<?xml version="1.0" standalone="no"?><!DOCTYPE svg PUBLIC "-//W3C//DTD SVG 1.1//EN" "http://www.w3.org/Graphics/SVG/1.1/DTD/svg11.dtd"><svg t="1496972481528" class="icon" style="" viewBox="0 0 1024 1024" version="1.1" xmlns="http://www.w3.org/2000/svg" p-id="4317" xmlns:xlink="http://www.w3.org/1999/xlink" width="48" height="48"><defs><style type="text/css"></style></defs><path d="M456.145455 625.260606c15.515152 15.515152 26.375758 26.375758 34.133333 32.581818l13.963636 12.412121 31.030303-29.478787 13.963637-13.963637c15.515152-13.963636 32.581818-32.581818 49.648484-52.751515 20.169697-23.272727 35.684848-44.993939 46.545455-63.612121 21.721212-35.684848 31.030303-69.818182 34.133333-91.539394 1.551515-6.206061 1.551515-12.412121 3.103031-18.618182v-7.757576c0-43.442424-17.066667-83.781818-48.09697-116.363636-32.581818-32.581818-79.127273-52.751515-127.224242-52.751515-46.545455 0-89.987879 17.066667-121.018182 48.09697-32.581818 31.030303-51.2 72.921212-52.751515 117.915151-1.551515 38.787879 13.963636 83.781818 48.096969 136.533333 29.478788 51.2 65.163636 88.436364 74.472728 99.29697z m66.715151-24.824242c-7.757576 7.757576-13.963636 12.412121-13.963636 13.963636l-4.654546 4.654545-20.169697-20.169697c-9.309091-9.309091-41.890909-44.993939-69.818182-89.987878-29.478788-44.993939-43.442424-83.781818-41.890909-114.812122 1.551515-35.684848 15.515152-68.266667 41.890909-91.539393 24.824242-24.824242 58.957576-38.787879 96.19394-38.787879 37.236364 0 74.472727 15.515152 99.29697 40.339394 23.272727 24.824242 37.236364 55.854545 37.236363 88.436363v4.654546c0 4.654545-1.551515 9.309091-1.551515 13.963636-3.10303 18.618182-10.860606 46.545455-29.478788 77.575758-10.860606 17.066667-24.824242 37.236364-43.442424 58.957575-18.618182 23.272727-35.684848 40.339394-49.648485 52.751516z" fill="#797979" p-id="4318"></path><path d="M769.551515 465.454545l-89.987879 27.927273 10.860606 29.478788 54.303031-17.066667v220.315152L591.127273 760.242424l-167.563637-38.787879-144.290909 31.030303V536.824242l60.509091-37.236363-23.272727-23.272727-71.369697 41.890909v269.963636h29.478788l148.945454-32.581818 167.563637 41.890909 183.078788-46.545455h4.654545V488.727273zM583.369697 392.533333c0-40.339394-34.133333-72.921212-74.472727-72.921212-41.890909 0-74.472727 32.581818-74.472728 72.921212s34.133333 72.921212 74.472728 72.921212c40.339394 0 74.472727-32.581818 74.472727-72.921212z m-74.472727 35.684849c-20.169697 0-37.236364-15.515152-37.236364-35.684849s17.066667-35.684848 37.236364-35.684848c20.169697 0 37.236364 15.515152 37.236363 35.684848s-17.066667 35.684848-37.236363 35.684849z" fill="#797979" p-id="4319"></path></svg>