<?xml version="1.0" standalone="no"?><!DOCTYPE svg PUBLIC "-//W3C//DTD SVG 1.1//EN" "http://www.w3.org/Graphics/SVG/1.1/DTD/svg11.dtd"><svg t="1496905728167" class="icon" style="" viewBox="0 0 1024 1024" version="1.1" xmlns="http://www.w3.org/2000/svg" p-id="4361" xmlns:xlink="http://www.w3.org/1999/xlink" width="32" height="32"><defs><style type="text/css"></style></defs><path d="M512 636.8c-64 0-124.8 25.6-166.4 70.4l166.4 166.4 166.4-166.4C636.8 665.6 576 636.8 512 636.8z" p-id="4362" fill="#797979"></path><path d="M512 393.6c-131.2 0-252.8 54.4-339.2 140.8L256 617.6c64-64 156.8-105.6 256-105.6s192 41.6 256 105.6l83.2-83.2C764.8 448 643.2 393.6 512 393.6z" p-id="4363" fill="#797979"></path><path d="M512 150.4c-198.4 0-380.8 80-512 211.2L86.4 448c108.8-108.8 259.2-176 425.6-176s316.8 67.2 425.6 176l86.4-86.4C892.8 230.4 710.4 150.4 512 150.4z" p-id="4364" fill="#797979"></path></svg>