<?xml version="1.0" standalone="no"?><!DOCTYPE svg PUBLIC "-//W3C//DTD SVG 1.1//EN" "http://www.w3.org/Graphics/SVG/1.1/DTD/svg11.dtd"><svg t="1497273120361" class="icon" style="" viewBox="0 0 2884 1024" version="1.1" xmlns="http://www.w3.org/2000/svg" p-id="3653" xmlns:xlink="http://www.w3.org/1999/xlink" width="180.25" height="64"><defs><style type="text/css"></style></defs><path d="M0 0h288.5632v1022.3616H0V0zM2596.20864 0H2884.48512v1022.3616h-288.27648V0zM405.05344 0h184.27904v782.82752H405.05344V0zM686.85824 0h103.09632v782.82752h-103.09632V0zM923.648 0h492.38016v782.82752H923.648V0zM1524.20352 0h246.25152v782.82752H1524.20352V0zM1889.81248 0h320.22528v782.82752h-320.22528V0zM2275.7376 0h160.23552v782.82752h-160.23552V0zM686.32576 948.46976c31.62112-11.6736 53.53472-20.64384 65.69984-26.8288 18.30912-9.4208 31.70304-18.35008 40.1408-26.95168 8.47872-8.51968 12.65664-17.57184 12.65664-27.0336 0-16.62976-14.7456-30.59712-44.27776-41.82016-29.53216-11.18208-70.08256-16.7936-121.73312-16.7936-47.104 0-86.38464 4.83328-117.80096 14.49984-31.41632 9.6256-50.09408 25.6-56.03328 47.80032l99.9424 4.01408c1.88416-11.71456 9.0112-20.15232 21.42208-25.23136 12.36992-5.07904 28.99968-7.61856 49.93024-7.61856 21.21728 0 37.80608 2.4576 49.80736 7.20896 12.00128 4.9152 18.0224 11.75552 18.0224 20.76672 0 8.15104-6.92224 16.384-20.72576 24.73984-10.24 5.98016-37.96992 17.53088-83.18976 34.44736-56.15616 21.01248-93.75744 37.84704-112.80384 50.46272-19.0464 12.6976-30.47424 26.09152-34.24256 40.30464h351.60064v-37.4784h-199.18848c5.20192-3.64544 12.04224-7.41376 20.52096-11.22304 8.56064-3.85024 28.672-11.59168 60.25216-23.26528zM1166.49984 809.04192H1082.24512l-227.00032 133.69344v35.30752h214.17984v42.3936h97.11616v-42.3936h64.96256v-35.47136h-64.96256v-133.5296h-0.04096z m-97.11616 133.5296h-120.29952l120.29952-71.92576v71.92576zM1473.1264 879.57504c-23.30624 0-46.16192 2.2528-68.52608 6.7584l15.72864-35.75808h189.15328v-37.76512h-265.25696l-51.36384 109.52704 81.38752 4.7104c22.85568-10.19904 48.66048-15.31904 77.45536-15.31904 23.10144 0 41.82016 3.23584 56.23808 9.70752 14.41792 6.43072 21.58592 16.13824 21.58592 29.04064 0 13.80352-7.24992 24.08448-21.79072 30.96576-14.49984 6.84032-32.19456 10.24-53.16608 10.24-18.35008 0-34.52928-2.62144-48.57856-7.94624-14.00832-5.28384-22.48704-12.53376-25.31328-21.58592l-99.9424 4.21888c5.9392 17.57184 24.12544 31.62112 54.59968 42.02496 30.43328 10.40384 69.87776 15.60576 118.12864 15.60576 60.53888 0 107.68384-9.29792 141.76256-27.8528 24.9856-13.59872 37.4784-29.04064 37.4784-46.36672 0-20.80768-15.48288-37.6832-46.40768-50.74944-30.9248-12.98432-68.64896-19.456-113.17248-19.456zM1879.73632 879.57504c-23.30624 0-46.16192 2.2528-68.52608 6.7584l15.72864-35.75808h189.15328v-37.76512h-265.25696l-51.4048 109.52704 81.38752 4.7104c22.85568-10.19904 48.66048-15.31904 77.45536-15.31904 23.10144 0 41.86112 3.23584 56.23808 9.70752 14.41792 6.43072 21.62688 16.13824 21.62688 29.04064 0 13.80352-7.33184 24.08448-21.79072 30.96576-14.49984 6.84032-32.23552 10.24-53.20704 10.24a136.3968 136.3968 0 0 1-48.57856-7.94624c-14.04928-5.28384-22.48704-12.53376-25.31328-21.58592l-99.9424 4.21888c5.9392 17.57184 24.12544 31.62112 54.55872 42.02496 30.5152 10.40384 69.91872 15.60576 118.21056 15.60576 60.49792 0 107.7248-9.29792 141.7216-27.8528 24.9856-13.59872 37.4784-29.04064 37.4784-46.36672 0-20.80768-15.44192-37.6832-46.40768-50.74944-30.88384-12.98432-68.64896-19.456-113.13152-19.456zM2312.72448 948.46976c31.66208-11.6736 53.57568-20.64384 65.69984-26.8288 18.35008-9.4208 31.70304-18.35008 40.1408-26.95168 8.43776-8.51968 12.73856-17.57184 12.73856-27.0336 0-16.62976-14.78656-30.59712-44.31872-41.82016s-70.08256-16.7936-121.73312-16.7936c-47.104 0-86.34368 4.83328-117.76 14.49984-31.49824 9.6256-50.21696 25.6-56.07424 47.80032l99.90144 4.01408c1.92512-11.71456 9.05216-20.15232 21.42208-25.23136s29.04064-7.61856 49.9712-7.61856c21.21728 0 37.76512 2.4576 49.84832 7.20896 12.00128 4.9152 17.94048 11.75552 17.94048 20.76672 0 8.15104-6.84032 16.384-20.64384 24.73984-10.24 5.98016-38.01088 17.53088-83.1488 34.44736-56.19712 21.01248-93.83936 37.84704-112.8448 50.46272-19.08736 12.6976-30.47424 26.09152-34.24256 40.30464h351.6416v-37.4784h-199.22944c5.24288-3.64544 12.0832-7.41376 20.52096-11.22304s28.59008-11.59168 60.17024-23.26528z" fill="#797979" p-id="3654"></path></svg>