<?xml version="1.0" standalone="no"?><!DOCTYPE svg PUBLIC "-//W3C//DTD SVG 1.1//EN" "http://www.w3.org/Graphics/SVG/1.1/DTD/svg11.dtd"><svg t="1497186788050" class="icon" style="" viewBox="0 0 1024 1024" version="1.1" xmlns="http://www.w3.org/2000/svg" p-id="10080" xmlns:xlink="http://www.w3.org/1999/xlink" width="48" height="48"><defs><style type="text/css"></style></defs><path d="M985.408 706.688 546.176 263.424C538.368 255.488 528 251.52 517.696 251.52c-10.176 0-20.416 3.84-28.224 11.648C489.28 263.296 489.28 263.488 489.088 263.68 488.384 264.32 487.552 264.448 486.848 265.152l-443.264 439.232c-15.744 15.616-15.808 41.024-0.192 56.768 15.616 15.744 41.024 15.872 56.768 0.256L517.248 348.16l411.264 415.04c15.616 15.744 40.96 15.808 56.768 0.256C1001.024 747.84 1001.088 722.368 985.408 706.688z" p-id="10081" fill="#797979"></path></svg>