<?xml version="1.0" standalone="no"?><!DOCTYPE svg PUBLIC "-//W3C//DTD SVG 1.1//EN" "http://www.w3.org/Graphics/SVG/1.1/DTD/svg11.dtd"><svg t="1496905869838" class="icon" style="" viewBox="0 0 1024 1024" version="1.1" xmlns="http://www.w3.org/2000/svg" p-id="5897" xmlns:xlink="http://www.w3.org/1999/xlink" width="32" height="32"><defs><style type="text/css"></style></defs><path d="M705.61792 374.4768c5.55008-3.87072 8.84736-10.21952 8.78592-16.9984-0.06144-6.7584-3.44064-13.06624-9.05216-16.81408l-204.8-137.50272c-6.28736-4.21888-14.37696-4.62848-21.05344-1.08544-6.656 3.56352-10.83392 10.52672-10.83392 18.08384L468.66432 489.472l-22.016 15.31904-150.48704-106.31168c-9.25696-6.53312-22.016-4.34176-28.54912 4.89472-6.53312 9.23648-4.34176 22.016 4.89472 28.54912l138.36288 97.75104-138.24 96.17408c-9.27744 6.4512-11.5712 19.23072-5.12 28.52864s19.23072 11.5712 28.52864 5.12l150.4256-104.67328 22.20032 15.68768L468.66432 834.56c0 7.4752 4.05504 14.336 10.62912 17.94048 3.072 1.69984 6.4512 2.53952 9.85088 2.53952 3.82976 0 7.63904-1.06496 10.97728-3.1744l204.8-129.98656c5.75488-3.66592 9.3184-9.95328 9.50272-16.7936 0.16384-6.81984-3.072-13.27104-8.66304-17.22368l-196.13696-138.58816 0-38.42048L705.61792 374.4768zM509.60384 258.58048l148.02944 99.38944-148.02944 102.99392L509.60384 258.58048zM657.14176 703.65184l-147.53792 93.63456L509.60384 599.4496 657.14176 703.65184z" p-id="5898" fill="#797979"></path></svg>