<?xml version="1.0" standalone="no"?><!DOCTYPE svg PUBLIC "-//W3C//DTD SVG 1.1//EN" "http://www.w3.org/Graphics/SVG/1.1/DTD/svg11.dtd"><svg t="1497183689716" class="icon" style="" viewBox="0 0 1024 1024" version="1.1" xmlns="http://www.w3.org/2000/svg" p-id="2523" xmlns:xlink="http://www.w3.org/1999/xlink" width="64" height="64"><defs><style type="text/css"></style></defs><path d="M512.00921 834.023204c-14.865569 0-26.931373 11.920494-26.931373 26.606984l0 63.894216c0 14.691607 12.066827 26.612101 26.931373 26.612101 14.866592 0 26.931373-11.920494 26.931373-26.612101l0-63.894216C538.940582 845.943698 526.875802 834.023204 512.00921 834.023204z" p-id="2524" fill="#797979"></path><path d="M159.12923 485.400179l-64.668859 0c-14.866592 0-26.931373 11.902074-26.931373 26.606984 0 14.686491 12.065803 26.608008 26.931373 26.608008l64.668859 0c14.869662 0 26.936489-11.921517 26.936489-26.608008C186.065719 497.30123 173.998893 485.400179 159.12923 485.400179z" p-id="2525" fill="#797979"></path><path d="M243.444545 284.295951c5.259794 5.196349 12.157901 7.788383 19.031449 7.788383 6.897084 0 13.790074-2.592035 19.049868-7.788383 10.520611-10.394744 10.520611-27.246551 0-37.626969l-45.730531-45.178969c-10.520611-10.393721-27.560706-10.393721-38.08234 0-10.520611 10.394744-10.520611 27.246551 0 37.621852L243.444545 284.295951z" p-id="2526" fill="#797979"></path><path d="M512.00921 189.958376c14.866592 0 26.931373-11.901051 26.931373-26.606984L538.940582 99.470479c0-14.686491-12.065803-26.606984-26.931373-26.606984-14.865569 0-26.931373 11.920494-26.931373 26.606984l0 63.880913C485.076814 178.056302 497.143641 189.958376 512.00921 189.958376z" p-id="2527" fill="#797979"></path><path d="M243.444545 739.704049l-45.730531 45.183062c-10.520611 10.394744-10.520611 27.227108 0 37.621852 5.259794 5.196349 12.157901 7.788383 19.031449 7.788383 6.897084 0 13.790074-2.592035 19.049868-7.788383l45.730531-45.184085c10.520611-10.393721 10.520611-27.227108 0-37.621852C271.006274 729.310328 253.966179 729.310328 243.444545 739.704049z" p-id="2528" fill="#797979"></path><path d="M512.00921 250.393817c-146.006352 0-264.790712 117.359918-264.790712 261.613346 0 144.235009 118.78436 261.593903 264.790712 261.593903s264.777409-117.354801 264.777409-261.593903C776.786619 367.753735 658.015561 250.393817 512.00921 250.393817zM512.00921 720.387098 512.00921 303.612902c116.28954 0 210.913641 93.481068 210.913641 208.394261C722.92285 626.921379 628.298749 720.387098 512.00921 720.387098z" p-id="2529" fill="#797979"></path><path d="M788.203646 201.490014l-45.712111 45.178969c-10.520611 10.394744-10.520611 27.232225 0 37.626969 5.259794 5.196349 12.138458 7.788383 19.031449 7.788383 6.892991 0 13.790074-2.592035 19.049868-7.788383l45.712111-45.183062c10.520611-10.394744 10.520611-27.232225 0-37.621852C815.763328 191.096293 798.723234 191.096293 788.203646 201.490014z" p-id="2530" fill="#797979"></path><path d="M929.539628 485.400179l-64.650439 0c-14.870686 0-26.935466 11.902074-26.935466 26.606984 0 14.686491 12.06478 26.608008 26.935466 26.608008l64.650439 0c14.865569 0 26.931373-11.921517 26.931373-26.608008C956.472024 497.30123 944.405197 485.400179 929.539628 485.400179z" p-id="2531" fill="#797979"></path><path d="M780.573875 739.704049c-10.520611-10.393721-27.560706-10.393721-38.08234 0-10.520611 10.376325-10.520611 27.232225 0 37.621852l45.712111 45.184085c5.259794 5.196349 12.138458 7.788383 19.030425 7.788383 6.898107 0 13.790074-2.592035 19.051915-7.788383 10.520611-10.375302 10.520611-27.227108 0-37.621852L780.573875 739.704049z" p-id="2532" fill="#797979"></path></svg>