<?xml version="1.0" standalone="no"?><!DOCTYPE svg PUBLIC "-//W3C//DTD SVG 1.1//EN" "http://www.w3.org/Graphics/SVG/1.1/DTD/svg11.dtd"><svg t="1497186798322" class="icon" style="" viewBox="0 0 1024 1024" version="1.1" xmlns="http://www.w3.org/2000/svg" p-id="10818" xmlns:xlink="http://www.w3.org/1999/xlink" width="48" height="48"><defs><style type="text/css"></style></defs><path d="M945.4 228.101c-14.472-14.285-37.748-14.213-52.072 0.224l-377.322 380.777-382.586-379.158c-14.472-14.324-37.749-14.218-52.112 0.219-14.33 14.477-14.218 37.788 0.219 52.118l406.634 402.952c0.629 0.623 1.439 0.77 2.062 1.36 0.152 0.145 0.185 0.331 0.332 0.478 7.182 7.109 16.577 10.683 25.93 10.683 9.464 0 18.967-3.647 26.149-10.902l402.952-406.634c14.363-14.477 14.251-37.789-0.186-52.117v0zM945.4 228.101z" p-id="10819" fill="#797979"></path></svg>