<?xml version="1.0" standalone="no"?><!DOCTYPE svg PUBLIC "-//W3C//DTD SVG 1.1//EN" "http://www.w3.org/Graphics/SVG/1.1/DTD/svg11.dtd"><svg t="1497187149197" class="icon" style="" viewBox="0 0 1024 1024" version="1.1" xmlns="http://www.w3.org/2000/svg" p-id="11556" xmlns:xlink="http://www.w3.org/1999/xlink" width="200" height="200"><defs><style type="text/css"></style></defs><path d="M0 1024 0 0.001l1024 0L1024 1024 0 1024zM972.799 51.2 51.2 51.2l0 921.599 921.599 0L972.799 51.2zM409.599 409.6 153.601 409.6 153.601 153.599l255.998 0L409.599 409.6zM358.4 204.8l-51.201 0L307.199 307.2l-102.4 0 0 51.199L358.4 358.399 358.4 204.8zM204.799 512l-51.198 0 0-51.199 51.198 0L204.799 512zM256 460.801l255.998 0L511.998 358.399l51.201 0 0 102.402 153.602 0L716.801 512 665.6 512l0 51.201-102.4 0L563.2 512l-51.201 0 0 51.201L358.4 563.201 358.4 512l-51.201 0 0 51.201-102.4 0L204.799 512 256 512 256 460.801zM460.8 255.999l51.198 0L511.998 204.8l51.201 0L563.199 307.2l-51.201 0 0 51.199L460.8 358.399 460.8 255.999zM460.8 153.599l51.198 0L511.998 204.8 460.8 204.8 460.8 153.599zM768 460.801l51.201 0L819.201 512l51.197 0 0 51.201L716.801 563.201 716.801 512 768 512 768 460.801zM409.599 870.4 153.601 870.4 153.601 614.398l255.998 0L409.599 870.4zM358.4 665.6 204.799 665.6l0 51.199 102.4 0 0 102.4L358.4 819.199 358.4 665.6zM511.999 665.6 460.8 665.6l0-51.201 51.198 0L511.998 665.6zM614.398 614.398 665.6 614.398l153.602 0L819.202 665.6l51.197 0L870.399 768l-51.197 0 0 51.199 51.197 0L870.399 870.4 716.801 870.4l0-51.201L768 819.199 768 768l-51.199 0 0 51.199L665.6 819.199 665.6 870.4l-51.201 0L614.399 768 665.6 768l0-51.201 51.201 0L716.801 665.6 665.6 665.6l0 51.199-51.201 0L614.399 768l-102.4 0 0 51.199L460.8 819.199l0-102.4 51.198 0L511.998 665.6l102.4 0L614.398 614.398zM563.199 870.4l-51.201 0 0-51.201 51.201 0L563.199 870.4zM614.398 153.599l256 0L870.398 409.6l-256 0L614.398 153.599zM665.6 358.399l153.602 0L819.202 307.2l-102.4 0L716.802 204.8 665.6 204.8 665.6 358.399z" p-id="11557" fill="#797979"></path></svg>