<?xml version="1.0" standalone="no"?><!DOCTYPE svg PUBLIC "-//W3C//DTD SVG 1.1//EN" "http://www.w3.org/Graphics/SVG/1.1/DTD/svg11.dtd"><svg t="1497183875696" class="icon" style="" viewBox="0 0 1024 1024" version="1.1" xmlns="http://www.w3.org/2000/svg" p-id="7203" xmlns:xlink="http://www.w3.org/1999/xlink" width="32" height="32"><defs><style type="text/css"></style></defs><path d="M119.200058 375.999884l785.598642 0c65.851459 0 119.2013 53.403246 119.2013 119.2013 0 65.798055-53.348599 119.200058-119.2013 119.200058L119.200058 614.401242C53.348599 614.4 0 560.997996 0 495.201184 0 429.403129 53.348599 375.999884 119.200058 375.999884z" p-id="7204" fill="#797979"></path><path d="M528.798816 0c65.851459 0 119.2013 53.403246 119.2013 119.200058l0 785.598642c0 65.798055-53.348599 119.2013-119.2013 119.2013-65.851459 0-119.198816-53.402004-119.198816-119.2013L409.6 119.200058C409.6 53.403246 462.947357 0 528.798816 0z" p-id="7205" fill="#797979"></path></svg>