<?xml version="1.0" standalone="no"?><!DOCTYPE svg PUBLIC "-//W3C//DTD SVG 1.1//EN" "http://www.w3.org/Graphics/SVG/1.1/DTD/svg11.dtd"><svg t="1497616139592" class="icon" style="" viewBox="0 0 1024 1024" version="1.1" xmlns="http://www.w3.org/2000/svg" p-id="1545" xmlns:xlink="http://www.w3.org/1999/xlink" width="32" height="32"><defs><style type="text/css"></style></defs><path d="M872.4142 901.9945H727.871488c131.5082-76.8471 227.7161-220.5757 227.7161-385.239 0-245.2306-194.3982-448.8069-444.6515-448.9421-15.3692 0-27.8057 12.4641-27.8057 27.8057s12.4375 27.8057 27.8057 27.8057c222.4476 0.1905 389.0401 178.8119 389.0401 393.3307 0 164.8548-109.0775 305.7316-250.0096 362.3485v-199.55712c0-15.3713-12.4365-27.8057-27.8057-27.8057-15.3692 0-27.8057 12.4355-27.8057 27.8057V957.6069120000001h278.061056c15.3692 0 27.8057-12.4375 27.8057-27.8067C900.2209 914.432 887.7834 901.9945 872.4142 901.9945zM510.935 901.9945c-222.4486-0.1905-389.0401-178.8109-389.0401-393.3317 0-164.8538 109.0796-305.7306 250.0106-362.3475v199.55712c0 15.3426 12.4375 27.8067 27.8057 27.8067s27.8057-12.4641 27.8057-27.8067V67.812352H149.456896c-15.3692 0-27.8057 12.4641-27.8057 27.8057s12.4375 27.8057 27.8057 27.8057h138.487808C159.5034 202.2533 66.2825 346.5247 66.2825 508.6628c0 245.2306 194.3982 448.8079 444.6525 448.9441 15.3692 0 27.8057-12.4375 27.8057-27.8067C538.7418 914.432 526.3043 901.9945 510.935 901.9945z" p-id="1546" fill="#797979"></path></svg>