<?xml version="1.0" standalone="no"?><!DOCTYPE svg PUBLIC "-//W3C//DTD SVG 1.1//EN" "http://www.w3.org/Graphics/SVG/1.1/DTD/svg11.dtd"><svg t="1497183830200" class="icon" style="" viewBox="0 0 16030 1024" version="1.1" xmlns="http://www.w3.org/2000/svg" p-id="6363" xmlns:xlink="http://www.w3.org/1999/xlink" width="500.9375" height="32"><defs><style type="text/css"></style></defs><path d="M4735.037594 515.849624m-115.488722 0a1.5 1.5 0 1 0 230.977444 0 1.5 1.5 0 1 0-230.977444 0Z" p-id="6364" fill="#797979"></path><path d="M3811.12782 400.360902C3811.12782 400.360902 3811.12782 400.360902 3811.12782 400.360902 3811.12782 400.360902 3811.12782 400.360902 3811.12782 400.360902c-69.293233 0-123.18797 53.894737-123.18797 115.488722s53.894737 115.488722 115.488722 115.488722c0 0 0 0 0 0 0 0 0 0 0 0 61.593985 0 115.488722-53.894737 115.488722-115.488722S3880.421053 400.360902 3811.12782 400.360902z" p-id="6365" fill="#797979"></path><path d="M2887.218045 400.360902C2887.218045 400.360902 2887.218045 400.360902 2887.218045 400.360902 2887.218045 400.360902 2887.218045 400.360902 2887.218045 400.360902c-69.293233 0-123.18797 53.894737-123.18797 115.488722s53.894737 115.488722 115.488722 115.488722c0 0 0 0 0 0 0 0 0 0 0 0 61.593985 0 115.488722-53.894737 115.488722-115.488722S2956.511278 400.360902 2887.218045 400.360902z" p-id="6366" fill="#797979"></path><path d="M1963.308271 400.360902C1963.308271 400.360902 1963.308271 400.360902 1963.308271 400.360902 1963.308271 400.360902 1963.308271 400.360902 1963.308271 400.360902c-69.293233 0-123.18797 53.894737-123.18797 115.488722s53.894737 115.488722 115.488722 115.488722c0 0 0 0 0 0 0 0 0 0 0 0 61.593985 0 115.488722-53.894737 115.488722-115.488722S2032.601504 400.360902 1963.308271 400.360902z" p-id="6367" fill="#797979"></path><path d="M115.488722 515.849624m-115.488722 0a1.5 1.5 0 1 0 230.977444 0 1.5 1.5 0 1 0-230.977444 0Z" p-id="6368" fill="#797979"></path><path d="M1039.398496 400.360902C1039.398496 400.360902 1039.398496 400.360902 1039.398496 400.360902 1039.398496 400.360902 1039.398496 400.360902 1039.398496 400.360902c-69.293233 0-123.18797 53.894737-123.18797 115.488722s53.894737 115.488722 115.488722 115.488722c0 0 0 0 0 0 0 0 0 0 0 0 61.593985 0 115.488722-53.894737 115.488722-115.488722S1108.691729 400.360902 1039.398496 400.360902z" p-id="6369" fill="#797979"></path><path d="M5674.345865 515.849624m-115.488722 0a1.5 1.5 0 1 0 230.977444 0 1.5 1.5 0 1 0-230.977444 0Z" p-id="6370" fill="#797979"></path><path d="M6605.954887 515.849624m-115.488722 0a1.5 1.5 0 1 0 230.977444 0 1.5 1.5 0 1 0-230.977444 0Z" p-id="6371" fill="#797979"></path><path d="M9408.481203 515.849624m-115.488722 0a1.5 1.5 0 1 0 230.977444 0 1.5 1.5 0 1 0-230.977444 0Z" p-id="6372" fill="#797979"></path><path d="M10340.090226 515.849624m-115.488722 0a1.5 1.5 0 1 0 230.977444 0 1.5 1.5 0 1 0-230.977444 0Z" p-id="6373" fill="#797979"></path><path d="M11279.398496 515.849624m-115.488722 0a1.5 1.5 0 1 0 230.977444 0 1.5 1.5 0 1 0-230.977444 0Z" p-id="6374" fill="#797979"></path><path d="M12218.706767 400.360902C12211.007519 400.360902 12211.007519 400.360902 12218.706767 400.360902c-7.699248 0-15.398496 0-15.398496 0-61.593985 0-115.488722 53.894737-115.488722 115.488722s53.894737 115.488722 115.488722 115.488722c0 0 7.699248 0 7.699248 0 0 0 7.699248 0 7.699248 0 61.593985 0 115.488722-53.894737 115.488722-115.488722S12280.300752 400.360902 12218.706767 400.360902z" p-id="6375" fill="#797979"></path><path d="M13142.616541 400.360902C13134.917293 400.360902 13134.917293 400.360902 13142.616541 400.360902c-7.699248 0-15.398496 0-15.398496 0-61.593985 0-115.488722 53.894737-115.488722 115.488722s53.894737 115.488722 115.488722 115.488722c0 0 7.699248 0 7.699248 0 0 0 7.699248 0 7.699248 0 61.593985 0 115.488722-53.894737 115.488722-115.488722S13204.210526 400.360902 13142.616541 400.360902z" p-id="6376" fill="#797979"></path><path d="M14066.526316 400.360902C14058.827068 400.360902 14058.827068 400.360902 14066.526316 400.360902c-7.699248 0-15.398496 0-15.398496 0-61.593985 0-115.488722 53.894737-115.488722 115.488722s53.894737 115.488722 115.488722 115.488722c0 0 7.699248 0 7.699248 0 0 0 7.699248 0 7.699248 0 61.593985 0 115.488722-53.894737 115.488722-115.488722S14128.120301 400.360902 14066.526316 400.360902z" p-id="6377" fill="#797979"></path><path d="M14990.43609 400.360902C14982.736842 400.360902 14982.736842 400.360902 14990.43609 400.360902c-7.699248 0-15.398496 0-15.398496 0-61.593985 0-115.488722 53.894737-115.488722 115.488722s53.894737 115.488722 115.488722 115.488722c0 0 7.699248 0 7.699248 0 0 0 7.699248 0 7.699248 0 61.593985 0 115.488722-53.894737 115.488722-115.488722S15052.030075 400.360902 14990.43609 400.360902z" p-id="6378" fill="#797979"></path><path d="M15914.345865 515.849624m-115.488722 0a1.5 1.5 0 1 0 230.977444 0 1.5 1.5 0 1 0-230.977444 0Z" p-id="6379" fill="#797979"></path><path d="M8561.56391 431.157895l-400.360902-400.360902c-46.195489-38.496241-115.488722-38.496241-153.984962 0l-7.699248 7.699248c-38.496241 46.195489-38.496241 115.488722 0 153.984962l207.879699 207.879699-669.834586 0c-61.593985 0-115.488722 53.894737-115.488722 115.488722s53.894737 115.488722 115.488722 115.488722c15.398496 0 30.796992 0 38.496241-7.699248l631.338346 0-207.879699 207.879699c-38.496241 38.496241-38.496241 107.789474 0 153.984962l7.699248 7.699248c38.496241 38.496241 107.789474 38.496241 153.984962 0l400.360902-400.360902c23.097744-23.097744 30.796992-53.894737 30.796992-76.992481C8592.360902 485.052632 8584.661654 454.255639 8561.56391 431.157895z" p-id="6380" fill="#797979"></path></svg>